<svg width="19" height="17" viewBox="0 0 19 17" fill="none" xmlns="http://www.w3.org/2000/svg">
<path d="M8.82528 15.7314C8.92579 15.6312 9.00554 15.5122 9.05995 15.3811C9.11437 15.2501 9.14238 15.1096 9.14238 14.9677C9.14238 14.8258 9.11437 14.6853 9.05995 14.5542C9.00554 14.4232 8.92579 14.3042 8.82528 14.204L4.19922 9.57796L17.4063 9.57796C17.6922 9.57796 17.9664 9.46437 18.1686 9.26219C18.3708 9.06 18.4844 8.78577 18.4844 8.49984C18.4844 8.2139 18.3708 7.93968 18.1686 7.73749C17.9664 7.5353 17.6922 7.42171 17.4063 7.42171L4.19922 7.42171L8.82528 2.79386C9.02782 2.59132 9.1416 2.31662 9.1416 2.03019C9.1416 1.74376 9.02782 1.46906 8.82528 1.26652C8.62274 1.06398 8.34804 0.950195 8.06161 0.950195C7.77517 0.950195 7.50047 1.06398 7.29794 1.26652L0.829185 7.73527C0.728675 7.83543 0.648926 7.95445 0.594511 8.08549C0.540096 8.21654 0.512085 8.35704 0.512085 8.49894C0.512085 8.64084 0.540096 8.78134 0.594511 8.91238C0.648926 9.04343 0.728675 9.16245 0.829185 9.26261L7.29794 15.7314C7.3981 15.8319 7.51711 15.9116 7.64816 15.966C7.77921 16.0205 7.91971 16.0485 8.06161 16.0485C8.2035 16.0485 8.344 16.0205 8.47505 15.966C8.6061 15.9116 8.72512 15.8319 8.82528 15.7314Z" fill="#CA0000"/>
</svg>
