<svg width="97" height="39" viewBox="0 0 97 39" fill="none" xmlns="http://www.w3.org/2000/svg">
<g clip-path="url(#clip0_13_113)">
<path d="M37.4905 19.4997C37.4905 30.2705 29.1 38.9985 18.7467 38.9985C16.6254 39.0015 14.519 38.6289 12.5179 37.8966C17.1506 35.7424 22.6132 33.2178 23.815 32.6624C23.815 32.6624 23.8194 32.6624 23.8203 32.6624L23.8402 32.6533L24.0405 32.561C24.283 32.4495 24.4644 32.3662 24.5784 32.3148C24.5806 32.3134 24.5831 32.3123 24.5857 32.3117C24.5939 32.3077 24.6021 32.3032 24.6094 32.2986H24.6123L24.6361 32.287L24.6531 32.2784L24.7855 32.228L24.8825 32.1619C26.2339 31.4521 27.463 30.5145 28.52 29.3871C28.6748 29.2216 28.8246 29.0535 28.9691 28.8826C30.1181 27.5311 31.0071 25.9628 31.5881 24.2628C31.759 23.7616 31.9029 23.251 32.0192 22.7331C32.1458 22.1746 32.2387 21.6085 32.2976 21.038V21.035C32.5921 18.2479 32.0806 15.4328 30.8286 12.9497C30.6579 12.6067 30.4973 12.314 30.3324 12.0416C29.9802 11.4481 29.5856 10.883 29.1519 10.351C28.9773 10.131 28.7775 9.89694 28.5593 9.66537C26.6797 7.63861 24.2626 6.23988 21.616 5.64747C20.83 5.46745 20.0298 5.36292 19.2254 5.33517C19.1934 5.33517 19.1638 5.33215 19.1381 5.33215C18.8074 5.32206 18.4989 5.32357 18.1972 5.3382C18.1778 5.3382 18.1594 5.3382 18.1395 5.34123C16.486 5.41482 14.8596 5.80476 13.3419 6.49151L1.52051 11.7969C4.39122 4.85741 11.0231 0 18.7467 0C29.1 0 37.4905 8.72799 37.4905 19.4997Z" fill="#073CA6"/>
<path d="M15.3934 33.237L8.95457 36.1309C6.04571 34.274 3.67727 31.6289 2.10297 28.479C1.9017 28.0794 1.71497 27.6718 1.54231 27.2571C0.0763286 23.7257 -0.357196 19.8234 0.29586 16.0373L6.63336 13.0163C5.63836 15.0211 5.1209 17.2451 5.12452 19.5013C5.12452 26.1214 9.49146 31.6831 15.3934 33.237Z" fill="#CD172D"/>
<path d="M23.3654 19.582C20.7173 19.5134 18.7045 16.565 18.6817 16.5297L18.6647 16.5065C15.9449 12.8665 13.7561 11.1466 12.433 10.3515C12.9366 9.97439 13.4706 9.64338 14.0291 9.36216C14.2231 9.26126 14.4234 9.17045 14.6266 9.08216C15.7986 8.58018 17.0462 8.29604 18.3126 8.24266H18.3185C18.5663 8.23105 18.817 8.23105 19.0692 8.23963H19.0736C22.1737 10.4433 23.7922 14.8199 23.3654 19.582Z" fill="#073CA6"/>
<path d="M21.792 25.4605C20.8157 27.584 19.4805 29.3805 17.9465 30.7387C15.1848 30.5208 12.6071 29.2154 10.7389 27.0886L10.8019 27.1108C12.8656 27.8771 14.8759 27.8418 16.6986 26.9932C17.4261 26.6537 18.2947 26.2713 19.1793 26.0029C20.1426 25.7112 21.0204 25.5311 21.792 25.4605Z" fill="#073CA6"/>
<path d="M9.4046 25.1956C9.36677 25.1296 9.32991 25.0625 9.29499 24.9903C8.18654 22.9379 7.72832 20.5743 7.98549 18.2354C9.32651 19.3827 11.2292 20.5057 13.6479 21.4017C15.1561 21.9555 16.7044 22.3828 18.2782 22.6797C19.7263 22.9647 21.1941 23.1284 22.6674 23.169C22.6053 23.3708 22.5403 23.5726 22.47 23.7744C22.4079 23.9591 22.342 24.1407 22.2731 24.3208C21.1178 24.3531 19.9092 24.6235 18.881 24.9348C17.9314 25.2234 17.0244 25.625 16.262 25.9781C13.7124 27.1617 11.2035 26.2813 9.4046 25.1956Z" fill="#073CA6"/>
<path d="M23.2315 20.6939C23.1607 21.1439 23.0749 21.597 22.9677 22.0495C21.4589 22.0296 19.9545 21.8733 18.4717 21.5824C18.1998 21.5296 17.9303 21.4737 17.6632 21.4149C17.1278 21.2961 16.6027 21.1638 16.088 21.0178C16.088 21.0178 16.088 21.0178 16.0855 21.0178C13.8977 20.4013 11.9145 19.5547 10.3368 18.5901C10.3311 18.5855 10.325 18.5816 10.3184 18.5785C10.1394 18.47 9.96484 18.3586 9.79606 18.244C9.53367 18.0685 9.28584 17.8909 9.05207 17.7092C8.97447 17.6492 8.89735 17.5877 8.82266 17.5276C8.59859 17.3445 8.38859 17.1583 8.19556 16.9727C8.19556 16.9727 8.19556 16.9727 8.19556 16.9752V16.9727C8.29182 16.548 8.41034 16.1291 8.55058 15.718C9.15559 13.9449 10.1796 12.3587 11.5285 11.1052C12.0697 11.3913 12.901 11.9215 13.968 12.8756C15.035 13.8296 16.3334 15.2039 17.8121 17.179C18.3741 17.9726 19.042 18.6786 19.7958 19.2757C20.3719 19.7404 21.0133 20.1101 21.6975 20.372C22.1906 20.558 22.7076 20.6665 23.2315 20.6939Z" fill="#073CA6"/>
<path d="M25.5037 28.3029C23.79 29.7264 21.7018 30.576 19.5144 30.7397C20.9044 29.2978 22.0975 27.5073 22.9768 25.4469C23.6922 25.5054 24.2684 25.6991 24.6743 26.0271C25.2486 26.4937 25.5206 27.2354 25.5037 28.3029Z" fill="#073CA6"/>
<path d="M21.0219 8.48532C23.1249 8.95801 25.0463 10.068 26.5436 11.6753C26.7056 11.8514 26.8603 12.0285 27.0097 12.2146C27.4646 14.4849 27.3404 16.3405 26.6333 17.6462C25.8573 19.0765 24.6589 19.3857 24.6123 19.3958L24.5687 19.4074C24.5274 19.4205 24.4896 19.4296 24.4503 19.4412C24.7743 15.1009 23.5065 11.0613 21.0219 8.48532Z" fill="#073CA6"/>
<path d="M23.7839 23.166C25.8815 23.1075 27.7492 22.7336 29.293 22.0561C29.2009 22.4719 29.0856 22.8817 28.9477 23.2836C28.4272 24.8068 27.5971 26.1953 26.5139 27.3544C26.3684 26.405 25.9727 25.6664 25.332 25.1477C24.7936 24.7123 24.1248 24.4752 23.3949 24.3753C23.423 24.2991 23.4516 24.224 23.4783 24.1453C23.5895 23.8207 23.6914 23.4943 23.7839 23.166Z" fill="#073CA6"/>
<path d="M29.5802 19.5013C29.5801 19.9071 29.5591 20.3126 29.5171 20.7161C29.5179 20.7189 29.5179 20.7219 29.5171 20.7247C28.0733 21.4764 26.1706 21.9355 24.0715 22.0304C24.1753 21.5586 24.2587 21.0869 24.3247 20.6177C24.5094 20.5836 24.6919 20.538 24.8713 20.481C25.0954 20.421 26.5901 19.9765 27.5519 18.2249C28.1407 17.1538 28.4055 15.839 28.3507 14.2897C29.1583 15.8984 29.5801 17.6864 29.5802 19.5013Z" fill="#073CA6"/>
<path d="M14.628 9.08115C14.628 9.08115 14.4137 9.18205 14.0291 9.35812C14.2231 9.25722 14.4234 9.16641 14.6266 9.07812L14.628 9.08115Z" fill="white"/>
<path d="M24.5784 32.3122C24.347 32.4298 24.1045 32.5408 23.8402 32.6508L24.0405 32.5584C24.2825 32.4469 24.4644 32.3637 24.5784 32.3122Z" fill="#ED1FFF"/>
<path d="M24.5784 32.3122C24.347 32.4298 24.1045 32.5408 23.8402 32.6508L24.0405 32.5584C24.2825 32.4469 24.4644 32.3637 24.5784 32.3122Z" fill="#ED1FFF"/>
<path d="M23.3654 19.582C20.7173 19.5134 18.7045 16.565 18.6817 16.5297L18.6647 16.5065C15.9449 12.8665 13.7561 11.1466 12.433 10.3515C12.9366 9.97439 13.4706 9.64338 14.0291 9.36216C14.2231 9.26126 14.4234 9.17045 14.6266 9.08216C15.7986 8.58018 17.0462 8.29604 18.3126 8.24266H18.3185C18.5663 8.23105 18.817 8.23105 19.0692 8.23963H19.0736C22.1737 10.4433 23.7922 14.8199 23.3654 19.582Z" fill="#073CA6"/>
<path d="M21.792 25.4605C20.8157 27.584 19.4805 29.3805 17.9465 30.7387C15.1848 30.5208 12.6071 29.2154 10.7389 27.0886L10.8019 27.1108C12.8656 27.8771 14.8759 27.8418 16.6986 26.9932C17.4261 26.6537 18.2947 26.2713 19.1793 26.0029C20.1426 25.7112 21.0204 25.5311 21.792 25.4605Z" fill="#073CA6"/>
<path d="M9.4046 25.1956C9.36677 25.1296 9.32991 25.0625 9.29499 24.9903C8.18654 22.9379 7.72832 20.5743 7.98549 18.2354C9.32651 19.3827 11.2292 20.5057 13.6479 21.4017C15.1561 21.9555 16.7044 22.3828 18.2782 22.6797C19.7263 22.9647 21.1941 23.1284 22.6674 23.169C22.6053 23.3708 22.5403 23.5726 22.47 23.7744C22.4079 23.9591 22.342 24.1407 22.2731 24.3208C21.1178 24.3531 19.9092 24.6235 18.881 24.9348C17.9314 25.2234 17.0244 25.625 16.262 25.9781C13.7124 27.1617 11.2035 26.2813 9.4046 25.1956Z" fill="#073CA6"/>
<path d="M23.2315 20.6939C23.1607 21.1439 23.0749 21.597 22.9677 22.0495C21.4589 22.0296 19.9545 21.8733 18.4717 21.5824C18.1998 21.5296 17.9303 21.4737 17.6632 21.4149C17.1278 21.2961 16.6027 21.1638 16.088 21.0178C16.088 21.0178 16.088 21.0178 16.0855 21.0178C13.8977 20.4013 11.9145 19.5547 10.3368 18.5901C10.3311 18.5855 10.325 18.5816 10.3184 18.5785C10.1394 18.47 9.96484 18.3586 9.79606 18.244C9.53367 18.0685 9.28584 17.8909 9.05207 17.7092C8.97447 17.6492 8.89735 17.5877 8.82266 17.5276C8.59859 17.3445 8.38859 17.1583 8.19556 16.9727C8.19556 16.9727 8.19556 16.9727 8.19556 16.9752V16.9727C8.29182 16.548 8.41034 16.1291 8.55058 15.718C9.15559 13.9449 10.1796 12.3587 11.5285 11.1052C12.0697 11.3913 12.901 11.9215 13.968 12.8756C15.035 13.8296 16.3334 15.2039 17.8121 17.179C18.3741 17.9726 19.042 18.6786 19.7958 19.2757C20.3719 19.7404 21.0133 20.1101 21.6975 20.372C22.1906 20.558 22.7076 20.6665 23.2315 20.6939Z" fill="#073CA6"/>
<path d="M25.5037 28.3029C23.79 29.7264 21.7018 30.576 19.5144 30.7397C20.9044 29.2978 22.0975 27.5073 22.9768 25.4469C23.6922 25.5054 24.2684 25.6991 24.6743 26.0271C25.2486 26.4937 25.5206 27.2354 25.5037 28.3029Z" fill="#073CA6"/>
<path d="M21.0219 8.48532C23.1249 8.95801 25.0463 10.068 26.5436 11.6753C26.7056 11.8514 26.8603 12.0285 27.0097 12.2146C27.4646 14.4849 27.3404 16.3405 26.6333 17.6462C25.8573 19.0765 24.6589 19.3857 24.6123 19.3958L24.5687 19.4074C24.5274 19.4205 24.4896 19.4296 24.4503 19.4412C24.7743 15.1009 23.5065 11.0613 21.0219 8.48532Z" fill="#073CA6"/>
<path d="M23.7839 23.166C25.8815 23.1075 27.7492 22.7336 29.293 22.0561C29.2009 22.4719 29.0856 22.8817 28.9477 23.2836C28.4272 24.8068 27.5971 26.1953 26.5139 27.3544C26.3684 26.405 25.9727 25.6664 25.332 25.1477C24.7936 24.7123 24.1248 24.4752 23.3949 24.3753C23.423 24.2991 23.4516 24.224 23.4783 24.1453C23.5895 23.8207 23.6914 23.4943 23.7839 23.166Z" fill="#073CA6"/>
<path d="M29.5802 19.5013C29.5801 19.9071 29.5591 20.3126 29.5171 20.7161C29.5179 20.7189 29.5179 20.7219 29.5171 20.7247C28.0733 21.4764 26.1706 21.9355 24.0715 22.0304C24.1753 21.5586 24.2587 21.0869 24.3247 20.6177C24.5094 20.5836 24.6919 20.538 24.8713 20.481C25.0954 20.421 26.5901 19.9765 27.5519 18.2249C28.1407 17.1538 28.4055 15.839 28.3507 14.2897C29.1583 15.8984 29.5801 17.6864 29.5802 19.5013Z" fill="#073CA6"/>
<path d="M14.628 9.08115C14.628 9.08115 14.4137 9.18205 14.0291 9.35812C14.2231 9.25722 14.4234 9.16641 14.6266 9.07812L14.628 9.08115Z" fill="white"/>
<path d="M24.5784 32.3122C24.347 32.4298 24.1045 32.5408 23.8402 32.6508L24.0405 32.5584C24.2825 32.4469 24.4644 32.3637 24.5784 32.3122Z" fill="#ED1FFF"/>
<path d="M24.5784 32.3122C24.347 32.4298 24.1045 32.5408 23.8402 32.6508L24.0405 32.5584C24.2825 32.4469 24.4644 32.3637 24.5784 32.3122Z" fill="#ED1FFF"/>
<path d="M46.6163 24.7603C46.3806 24.8275 46.0115 24.8948 45.509 24.9621C45.0142 25.0287 44.5157 25.0624 44.0167 25.063C43.5808 25.068 43.1455 25.0288 42.7169 24.9459C42.3752 24.8827 42.0516 24.74 41.7702 24.5287C41.5039 24.3147 41.3032 24.0248 41.1925 23.6942C41.0632 23.3384 40.9985 22.871 40.9985 22.2922V6.56668C40.9985 6.09951 41.1216 5.73794 41.3676 5.48199C41.6137 5.22603 41.9507 5.02019 42.3788 4.86447C43.1057 4.5954 43.9347 4.40066 44.8659 4.28025C45.7978 4.15786 46.7362 4.09653 47.6755 4.09661C50.6276 4.09661 52.8846 4.75247 54.4466 6.06419C56.0086 7.37591 56.7895 9.15632 56.7892 11.4054C56.7892 12.4962 56.6235 13.481 56.292 14.3598C55.9708 15.2227 55.4661 15.9988 54.8157 16.6301C54.1629 17.2641 53.3384 17.7538 52.3422 18.0992C51.346 18.4447 50.1969 18.617 48.8948 18.6164H46.6153L46.6163 24.7603ZM48.2852 14.0445C49.1834 14.0445 49.8734 13.8276 50.3552 13.3937C50.8369 12.9598 51.0775 12.2977 51.0768 11.4074C51.0768 10.5619 50.8254 9.9109 50.3227 9.45448C49.8199 8.99807 49.0872 8.76987 48.1246 8.76987C47.7822 8.76987 47.4987 8.77558 47.2739 8.78702C47.0425 8.79894 46.8122 8.82675 46.5843 8.87026V14.0445H48.2852Z" fill="#073CA6"/>
<path d="M67.187 25.4272C66.8226 25.4272 66.3947 25.4161 65.9032 25.3939C65.4117 25.3717 64.9036 25.3272 64.3789 25.2602C63.8544 25.193 63.3356 25.1089 62.8225 25.008C62.3398 24.917 61.8668 24.7772 61.4102 24.5907C60.2336 24.1229 59.6453 23.3105 59.6453 22.1535V6.56416C59.6453 6.09698 59.7683 5.73542 60.0143 5.47946C60.2604 5.22351 60.5973 5.01767 61.0251 4.86195C61.7523 4.59288 62.6616 4.39814 63.7532 4.27773C64.8729 4.1547 65.9981 4.09424 67.124 4.09661C69.8623 4.09661 71.9698 4.57505 73.4464 5.53193C74.9231 6.48882 75.6611 7.96871 75.6604 9.97161C75.6604 10.9732 75.3824 11.8356 74.8262 12.5587C74.2701 13.2819 73.5213 13.8104 72.5797 14.1444C73.649 14.4562 74.5422 15.0236 75.2593 15.8466C75.9765 16.6696 76.3349 17.7045 76.3346 18.9513C76.3346 21.1547 75.5484 22.7849 73.976 23.8421C72.4037 24.8992 70.1407 25.4276 67.187 25.4272ZM65.1015 12.5749H67.4441C68.3636 12.5749 69.0323 12.3968 69.45 12.0406C69.8678 11.6844 70.0763 11.1614 70.0757 10.4716C70.0757 9.87054 69.8349 9.39209 69.3535 9.03625C68.8721 8.6804 68.1501 8.50231 67.1875 8.50197C66.8664 8.50197 66.4973 8.51307 66.0802 8.53527C65.7524 8.54851 65.4255 8.58221 65.1015 8.63617V12.5749ZM65.1015 20.7202C65.4009 20.8093 65.786 20.8705 66.2568 20.9038C66.7276 20.9371 67.1768 20.9539 67.6046 20.9542C68.4601 20.9542 69.1715 20.7706 69.7386 20.4033C70.3057 20.036 70.5893 19.4631 70.5893 18.6845C70.5893 17.9499 70.3539 17.4269 69.8831 17.1154C69.4124 16.804 68.6955 16.6484 67.7326 16.6488H65.101L65.1015 20.7202Z" fill="#073CA6"/>
<path d="M83.6499 5.26505C84.013 5.04273 84.5638 4.83134 85.3023 4.63088C86.0304 4.43114 86.7802 4.32941 87.5333 4.32818C88.6032 4.32818 89.5499 4.48945 90.3734 4.812C91.197 5.13455 91.7264 5.64091 91.9618 6.33107C92.3472 7.48842 92.7645 8.83495 93.2136 10.3707C93.6627 11.9064 94.112 13.4921 94.5614 15.1277C95.0108 16.7633 95.4494 18.3767 95.8772 19.9679C96.305 21.5592 96.6794 22.9667 97.0005 24.1907C96.7441 24.5031 96.359 24.7535 95.8452 24.9419C95.3314 25.1302 94.7216 25.2249 94.0158 25.2259C93.5026 25.2259 93.0695 25.1813 92.7165 25.0922C92.3634 25.0029 92.0743 24.8702 91.8498 24.6916C91.6181 24.5051 91.4313 24.265 91.3041 23.9904C91.1526 23.6687 91.0291 23.3335 90.9351 22.9889L90.3555 20.6879H84.5486C84.3769 21.3555 84.2057 22.045 84.035 22.7563C83.8642 23.4677 83.693 24.1572 83.5213 24.8248C83.2115 24.9388 82.8953 25.0334 82.5746 25.1084C82.1788 25.1928 81.7753 25.232 81.3713 25.2254C80.2801 25.2254 79.4718 25.0307 78.9463 24.6412C78.4209 24.2517 78.1589 23.7121 78.1602 23.0222C78.1607 22.7059 78.204 22.3912 78.2887 22.0874C78.3737 21.7763 78.4707 21.409 78.5797 20.9855C78.7291 20.3848 78.9376 19.6393 79.2053 18.749C79.4731 17.8588 79.7673 16.8961 80.088 15.8612C80.4091 14.8267 80.7514 13.764 81.1148 12.6732C81.4782 11.5825 81.8206 10.5533 82.142 9.58566C82.4631 8.61767 82.7571 7.7553 83.0242 6.99854C83.2913 6.24178 83.4998 5.66395 83.6499 5.26505ZM87.5008 9.57153C87.201 10.5059 86.8641 11.5462 86.49 12.6924C86.1159 13.8387 85.7789 15.0016 85.4788 16.1811H89.4558C89.1561 14.9794 88.8513 13.8054 88.5416 12.6591C88.2318 11.5129 87.9483 10.4837 87.6909 9.57153H87.5008Z" fill="#073CA6"/>
<path d="M43.4889 34.8923C43.3687 34.8923 43.2274 34.8886 43.0651 34.8812C42.9026 34.8741 42.7353 34.8595 42.5621 34.8373C42.389 34.8151 42.2178 34.7868 42.0485 34.7546C41.8891 34.7248 41.733 34.6786 41.5824 34.6168C41.1944 34.4631 41.0004 34.1951 41.0004 33.8126V28.6667C40.9965 28.6016 41.0053 28.5364 41.0262 28.4749C41.0471 28.4134 41.0798 28.357 41.1221 28.309C41.2174 28.2166 41.3315 28.1476 41.4558 28.1072C41.7479 28.0076 42.0499 27.9429 42.356 27.9144C42.7254 27.8734 43.0966 27.853 43.4681 27.8534C44.3715 27.8534 45.0667 28.0113 45.5536 28.3271C46.0405 28.6429 46.284 29.1306 46.284 29.7902C46.291 30.0997 46.1936 30.4019 46.0085 30.6443C45.8155 30.8898 45.558 31.0716 45.2674 31.1675C45.6086 31.2635 45.9159 31.4601 46.1521 31.7336C46.3888 32.005 46.5071 32.3464 46.5071 32.7577C46.5071 33.4849 46.2484 34.023 45.7311 34.3721C45.2138 34.7213 44.4664 34.8946 43.4889 34.8923ZM42.8002 30.6514H43.5733C43.8769 30.6514 44.0976 30.5925 44.2354 30.4748C44.3731 30.3578 44.442 30.1847 44.442 29.9572C44.4438 29.8638 44.423 29.7713 44.3814 29.6885C44.3397 29.6057 44.2787 29.5352 44.2038 29.4835C44.0448 29.3661 43.8065 29.3074 43.4889 29.3074C43.3829 29.3074 43.261 29.3111 43.1233 29.3185C43.015 29.3225 42.9072 29.3335 42.8002 29.3513V30.6514ZM42.8002 33.3394C42.925 33.3729 43.0528 33.3932 43.1815 33.4C43.3367 33.4107 43.4851 33.4161 43.6267 33.4161C43.909 33.4161 44.1437 33.3556 44.3309 33.2345C44.5181 33.1134 44.6116 32.9244 44.6112 32.6674C44.6112 32.4249 44.5336 32.2522 44.3784 32.1493C44.2232 32.0464 43.9867 31.9959 43.6689 31.9979H42.8002V33.3394Z" fill="#073CA6"/>
<path d="M47.5552 29.0647C47.5552 28.7496 47.6434 28.5 47.82 28.316C47.9965 28.1321 48.2366 28.0402 48.5402 28.0406H52.0346C52.0922 28.1404 52.1367 28.2478 52.167 28.3599C52.2065 28.4957 52.2263 28.6368 52.2257 28.7787C52.2257 29.0578 52.1674 29.2561 52.0506 29.3735C51.989 29.4332 51.9164 29.4796 51.8373 29.5098C51.7582 29.5401 51.6741 29.5536 51.5899 29.5496H49.3555V30.5732H51.7383C51.7952 30.6715 51.8397 30.7769 51.8707 30.887C51.9102 31.0208 51.9299 31.1602 51.9289 31.3002C51.9289 31.5794 51.8725 31.7776 51.7596 31.895C51.6992 31.955 51.6276 32.0015 51.5493 32.0318C51.471 32.062 51.3876 32.0754 51.3042 32.0711H49.3555V33.2279H52.0773C52.1348 33.3278 52.1793 33.4352 52.2097 33.5473C52.249 33.6831 52.2686 33.8242 52.2679 33.966C52.2679 34.2448 52.2097 34.445 52.0933 34.5664C52.0324 34.6276 51.9601 34.6753 51.8809 34.7065C51.8017 34.7378 51.7172 34.7519 51.6326 34.748H48.5402C48.2366 34.748 47.9965 34.6564 47.82 34.473C47.6434 34.2897 47.5552 34.04 47.5552 33.7239V29.0647Z" fill="#073CA6"/>
<path d="M53.0619 29.5828C53.0029 29.4791 52.9566 29.3681 52.9241 29.2524C52.8814 29.1097 52.86 28.9609 52.8606 28.8115C52.8606 28.5249 52.9225 28.3192 53.0464 28.1944C53.1106 28.1314 53.1863 28.0823 53.269 28.0502C53.3517 28.0181 53.4397 28.0035 53.528 28.0073H58.1452C58.2043 28.1109 58.2506 28.222 58.2829 28.3377C58.3259 28.4804 58.3473 28.6291 58.3464 28.7787C58.3464 29.0649 58.2847 29.2706 58.1612 29.3957C58.0969 29.4586 58.0212 29.5076 57.9385 29.5398C57.8558 29.5719 57.7678 29.5865 57.6796 29.5828H56.5025V34.6723C56.382 34.702 56.2598 34.7241 56.1368 34.7384C55.9735 34.76 55.8091 34.771 55.6445 34.7712C55.5007 34.7728 55.3572 34.7599 55.2158 34.7329C55.103 34.712 54.9962 34.665 54.9034 34.5951C54.8154 34.5246 54.7492 34.4289 54.7128 34.3197C54.6657 34.1705 54.6442 34.0139 54.6493 33.857V29.5828H53.0619Z" fill="#073CA6"/>
<path d="M58.9503 29.5828C58.8911 29.4792 58.8448 29.3682 58.8126 29.2524C58.7699 29.1097 58.7484 28.9609 58.749 28.8115C58.749 28.5249 58.8108 28.3192 58.9343 28.1944C58.9985 28.1314 59.0742 28.0824 59.1569 28.0503C59.2397 28.0181 59.3277 28.0035 59.4159 28.0073H64.0336C64.1643 28.2417 64.2337 28.5077 64.2349 28.7787C64.2349 29.0649 64.173 29.2706 64.0491 29.3957C63.9849 29.4587 63.9092 29.5077 63.8265 29.5398C63.7438 29.572 63.6557 29.5866 63.5675 29.5828H62.3919V34.6723C62.2716 34.7021 62.1496 34.7242 62.0267 34.7384C61.8634 34.76 61.699 34.771 61.5344 34.7712C61.3905 34.7728 61.2467 34.7599 61.1052 34.7329C60.9924 34.7119 60.8857 34.6649 60.7928 34.5951C60.7048 34.5246 60.6386 34.4289 60.6022 34.3197C60.5553 34.1705 60.5338 34.0139 60.5387 33.857V29.5828H58.9503Z" fill="#073CA6"/>
<path d="M66.9882 34.6723C66.8677 34.702 66.7456 34.7241 66.6225 34.7384C66.4592 34.76 66.2948 34.771 66.1302 34.7712C65.9865 34.7728 65.8429 34.7599 65.7015 34.7329C65.5887 34.712 65.482 34.665 65.3892 34.5951C65.3012 34.5246 65.2349 34.4289 65.1986 34.3197C65.1514 34.1705 65.1299 34.0139 65.135 33.857V28.0406C65.2126 28.0259 65.3358 28.0058 65.5056 27.98C65.6661 27.955 65.8282 27.942 65.9906 27.9412C66.1345 27.9395 66.2783 27.9525 66.4198 27.98C66.5325 28.001 66.6392 28.0481 66.7321 28.1178C66.8197 28.1885 66.8859 28.2839 66.9227 28.3927C66.9696 28.5419 66.9911 28.6985 66.9863 28.8553L66.9882 34.6723Z" fill="#073CA6"/>
<path d="M74.1789 34.4847C74.0574 34.6003 73.9097 34.6819 73.7496 34.7218C73.5302 34.781 73.3041 34.8089 73.0774 34.8045C72.8255 34.8059 72.5751 34.7648 72.3359 34.6829C72.1031 34.6022 71.9125 34.4076 71.764 34.0992L70.716 31.8738C70.6096 31.6465 70.5142 31.4317 70.4298 31.2296C70.3454 31.0274 70.2536 30.7942 70.1543 30.5298L70.0908 30.5409C70.1189 30.9375 70.1351 31.3411 70.1393 31.7517C70.1435 32.1624 70.1453 32.566 70.1446 32.9625V34.6703C70.0276 34.6996 69.9091 34.7216 69.7896 34.7364C69.6333 34.758 69.4758 34.769 69.3182 34.7692C69.18 34.7705 69.0419 34.7595 68.9055 34.7364C68.7972 34.7197 68.6949 34.6742 68.6086 34.6042C68.5272 34.532 68.4652 34.439 68.4287 34.3343C68.3819 34.1907 68.3604 34.0394 68.3652 33.8878V28.3821C68.4791 28.2235 68.6391 28.1072 68.8215 28.0507C69.033 27.9759 69.2549 27.9385 69.4782 27.9402C69.7321 27.939 69.9843 27.9818 70.2247 28.0668C70.4613 28.1516 70.6502 28.3444 70.7911 28.6455L71.8504 30.8704C71.9561 31.0984 72.0515 31.3133 72.1365 31.5151C72.2216 31.7169 72.3132 31.95 72.4115 32.2144L72.4644 32.2033C72.4363 31.8067 72.4186 31.4102 72.4115 31.0136C72.4044 30.6171 72.4008 30.2205 72.4008 29.824V28.0406C72.5177 28.0107 72.6363 27.9887 72.7559 27.9745C72.9121 27.9524 73.0696 27.9413 73.2273 27.9412C73.5377 27.9412 73.7742 27.9982 73.9368 28.1122C74.0995 28.2262 74.1803 28.463 74.1793 28.8226L74.1789 34.4847Z" fill="#073CA6"/>
<path d="M81.3694 33.6255C81.3694 33.8535 81.3306 34.022 81.253 34.13C81.1511 34.2612 81.025 34.3698 80.882 34.4493C80.7634 34.5171 80.6395 34.5742 80.5115 34.6199C80.3528 34.678 80.1908 34.7259 80.0265 34.7631C79.8428 34.8047 79.6571 34.836 79.4702 34.857C79.2785 34.8786 79.0858 34.8896 78.893 34.8898C78.4087 34.8934 77.9267 34.8209 77.4632 34.6748C77.0381 34.5429 76.6435 34.3217 76.3036 34.025C75.9709 33.7275 75.7059 33.3568 75.5276 32.9398C75.3372 32.507 75.2418 32.004 75.2415 31.4309C75.2415 30.8292 75.3456 30.304 75.5538 29.8553C75.7485 29.4255 76.0296 29.0442 76.3783 28.7373C76.7243 28.439 77.1228 28.2135 77.5515 28.0734C77.9914 27.9267 78.4505 27.8523 78.9124 27.8529C79.5833 27.8529 80.1146 27.9649 80.5061 28.1889C80.8977 28.4129 81.093 28.7048 81.092 29.0647C81.0961 29.2408 81.0481 29.414 80.9543 29.5606C80.8707 29.6918 80.7627 29.8042 80.6366 29.8911C80.4257 29.7631 80.2049 29.6538 79.9765 29.5642C79.6903 29.4537 79.3869 29.3995 79.0817 29.4043C78.4884 29.4043 78.0171 29.5805 77.6679 29.933C77.3187 30.2855 77.1439 30.7732 77.1436 31.396C77.138 31.6948 77.1873 31.9919 77.2891 32.2714C77.374 32.5004 77.5065 32.7071 77.6771 32.8768C77.8383 33.0341 78.0295 33.1544 78.2383 33.2299C78.4567 33.3082 78.6863 33.3473 78.9173 33.3455C79.056 33.3473 79.1945 33.3326 79.33 33.3016C79.4258 33.2811 79.5185 33.2471 79.6055 33.2007V32.1715H78.4725C78.4218 32.0695 78.381 31.9625 78.3508 31.8521C78.3113 31.7164 78.2917 31.5752 78.2926 31.4334C78.2926 31.169 78.3508 30.9781 78.4672 30.8608C78.5271 30.8016 78.5978 30.7555 78.6751 30.7251C78.7524 30.6948 78.8347 30.6809 78.9173 30.6842H80.704C80.9158 30.6842 81.0799 30.7447 81.1963 30.8658C81.3127 30.9869 81.371 31.1578 81.3714 31.3784L81.3694 33.6255Z" fill="#073CA6"/>
<path d="M82.1314 33.8237C82.1229 33.5392 82.2218 33.2626 82.4068 33.0529C82.5908 32.847 82.8414 32.7441 83.1586 32.7441C83.4758 32.7441 83.7265 32.847 83.9108 33.0529C84.0885 33.2673 84.1862 33.5409 84.1862 33.824C84.1862 34.1071 84.0885 34.3807 83.9108 34.5951C83.7272 34.8003 83.4764 34.9031 83.1586 34.9034C82.8408 34.9037 82.5902 34.801 82.4068 34.5951C82.2218 34.3853 82.1229 34.1084 82.1314 33.8237Z" fill="#073CA6"/>
<path d="M86.9605 34.6723C86.8402 34.7021 86.7182 34.7242 86.5953 34.7384C86.4321 34.76 86.2676 34.771 86.103 34.7712C85.9591 34.7728 85.8154 34.7599 85.6738 34.7329C85.5611 34.7119 85.4543 34.6649 85.3615 34.5951C85.2735 34.5246 85.2072 34.4289 85.1709 34.3197C85.124 34.1705 85.1025 34.0139 85.1073 33.857V28.6682C85.1034 28.6031 85.1122 28.5379 85.1331 28.4764C85.1541 28.4149 85.1867 28.3585 85.2291 28.3105C85.3243 28.218 85.4384 28.149 85.5628 28.1087C85.8289 28.0143 86.104 27.9497 86.3834 27.916C86.6908 27.8754 87.0003 27.855 87.3102 27.8549C88.2844 27.8549 89.0292 28.0717 89.5446 28.5052C90.06 28.9388 90.3177 29.5262 90.3177 30.2675C90.3223 30.6003 90.2667 30.9312 90.1538 31.2427C90.0483 31.5272 89.8826 31.7833 89.6688 31.9919C89.434 32.2129 89.1558 32.3782 88.8535 32.4762C88.4853 32.5964 88.101 32.6541 87.7152 32.6472H86.9605V34.6723ZM87.5115 31.1357C87.808 31.1357 88.0356 31.0643 88.1944 30.9213C88.3531 30.7784 88.4325 30.5597 88.4325 30.2654C88.4325 29.9866 88.3496 29.7719 88.1837 29.6212C88.0178 29.4705 87.7753 29.3953 87.4562 29.3957C87.3432 29.3957 87.2501 29.3957 87.1759 29.4007C87.0994 29.4049 87.0233 29.4142 86.9479 29.4285V31.1357H87.5115Z" fill="#073CA6"/>
<path d="M97 34.6723C96.8797 34.7021 96.7578 34.7242 96.6348 34.7384C96.4714 34.76 96.3068 34.771 96.1421 34.7712C95.9983 34.7728 95.8547 34.7599 95.7133 34.7329C95.6006 34.7119 95.4939 34.6649 95.401 34.5951C95.313 34.5246 95.2468 34.4289 95.2104 34.3197C95.1633 34.1705 95.1417 34.0139 95.1469 33.857V32.1372H93.1133V34.6713C92.9929 34.7011 92.871 34.7231 92.7481 34.7374C92.5848 34.759 92.4204 34.77 92.2558 34.7702C92.1119 34.7718 91.9681 34.7589 91.8266 34.7319C91.7138 34.7108 91.6071 34.6638 91.5142 34.5941C91.4265 34.5233 91.3603 34.4277 91.3236 34.3187C91.2767 34.1695 91.2552 34.0129 91.2601 33.856V28.0406C91.3377 28.0261 91.4612 28.0059 91.6306 27.98C91.7912 27.955 91.9533 27.942 92.1156 27.9412C92.2594 27.9395 92.403 27.9525 92.5444 27.98C92.6571 28.0009 92.7639 28.0479 92.8567 28.1178C92.9446 28.1882 93.0108 28.2837 93.0473 28.3927C93.0944 28.5418 93.116 28.6985 93.1108 28.8553V30.6181H95.1444V28.0406C95.222 28.0261 95.3456 28.0059 95.515 27.98C95.6755 27.955 95.8376 27.942 96 27.9412C96.1439 27.9395 96.2877 27.9525 96.4292 27.98C96.5419 28.001 96.6487 28.0481 96.7415 28.1178C96.8294 28.1882 96.8956 28.2837 96.9321 28.3927C96.9808 28.5424 97.0038 28.6999 97 28.8579V34.6723Z" fill="#073CA6"/>
</g>
<defs>
<clipPath id="clip0_13_113">
<rect width="97" height="39" fill="white"/>
</clipPath>
</defs>
</svg>
